<svg width="16" height="16" viewBox="0 0 16 16" fill="none" xmlns="http://www.w3.org/2000/svg">
<path d="M5.6804 9.23042C4.98704 9.23042 4.42104 8.60075 4.42104 7.82962C4.42104 7.05842 4.97289 6.42873 5.6804 6.42873C6.3808 6.42873 6.95385 7.05842 6.93972 7.82962C6.93972 8.60075 6.3808 9.23042 5.6804 9.23042ZM10.3294 9.23042C9.63598 9.23042 9.06932 8.60075 9.06932 7.82962C9.06932 7.05842 9.62185 6.42873 10.3294 6.42873C11.0298 6.42873 11.6028 7.05842 11.5887 7.82962C11.5887 8.60075 11.0368 9.23042 10.3294 9.23042ZM6.75018 2.88183L6.54435 2.50653L6.12214 2.5769C5.14608 2.73958 4.2177 3.03103 3.35028 3.43055L3.19766 3.50084L3.10336 3.63992C1.36118 6.20946 0.883849 8.73895 1.1202 11.224L1.14596 11.4949L1.36606 11.6548C2.52566 12.4976 3.64943 13.0124 4.7515 13.3503L5.2777 13.5116L6.02007 11.7003C7.29312 12.015 8.70612 12.015 9.97932 11.7006L10.7171 13.5121L11.2445 13.3503C12.3448 13.0128 13.4758 12.498 14.631 11.654L14.8484 11.4952L14.8754 11.2275C15.166 8.34735 14.4106 5.83834 12.9031 3.63754L12.8085 3.49948L12.6564 3.42988C11.7844 3.03108 10.8568 2.73973 9.88725 2.57701L9.47545 2.5079L9.26578 2.86898C9.20745 2.96948 9.14765 3.08295 9.09092 3.19776C8.36272 3.12298 7.63732 3.12282 6.91505 3.19753C6.85878 3.08476 6.80165 2.97572 6.75018 2.88183ZM4.47622 11.0734C4.60822 11.1494 4.74647 11.2238 4.8837 11.2919L4.58425 12.0226C3.83722 11.7504 3.0789 11.3757 2.29838 10.837C2.14874 8.74502 2.57393 6.63385 4.00796 4.45736C4.6064 4.19401 5.23565 3.98838 5.89069 3.84849C5.93086 3.93206 5.96822 4.01363 5.99891 4.08596L6.18084 4.51477L6.64171 4.44718C7.54345 4.31492 8.45145 4.31474 9.36818 4.44735L9.82825 4.5139L10.0098 4.08596C10.0414 4.01148 10.0778 3.93017 10.1162 3.84867C10.7683 3.98869 11.3986 4.1946 12.0019 4.4586C13.252 6.3389 13.8827 8.43608 13.699 10.8367C12.9224 11.3749 12.1614 11.7498 11.4128 12.0222L11.1156 11.2925C11.2532 11.2242 11.3919 11.1496 11.5243 11.0734C11.8508 10.8852 12.2026 10.6505 12.4268 10.4264L11.5737 9.57335C11.4646 9.68248 11.2246 9.85368 10.922 10.0281C10.6258 10.1988 10.332 10.3366 10.1442 10.3987C8.80838 10.8404 7.19218 10.8404 5.85627 10.3987C5.66855 10.3366 5.37468 10.1988 5.07846 10.0281C4.77587 9.85368 4.53593 9.68248 4.42676 9.57335L3.57375 10.4264C3.79792 10.6505 4.14965 10.8852 4.47622 11.0734Z" fill="#0A3A1F"/>
</svg>
