<svg width="20" height="21" viewBox="0 0 20 21" fill="none" xmlns="http://www.w3.org/2000/svg">
<path d="M9.16666 2.16669C13.3067 2.16669 16.6667 5.52669 16.6667 9.66669C16.6667 13.8067 13.3067 17.1667 9.16666 17.1667C5.02666 17.1667 1.66666 13.8067 1.66666 9.66669C1.66666 5.52669 5.02666 2.16669 9.16666 2.16669ZM9.16666 15.5C12.3896 15.5 15 12.8896 15 9.66669C15 6.44377 12.3896 3.83335 9.16666 3.83335C5.94374 3.83335 3.33332 6.44377 3.33332 9.66669C3.33332 12.8896 5.94374 15.5 9.16666 15.5ZM16.2377 15.5593L18.5947 17.9163L17.4162 19.0948L15.0592 16.7378L16.2377 15.5593Z" fill="#1EBE5E"/>
</svg>
