<svg width="1188" height="218" viewBox="0 0 1188 218" fill="none" xmlns="http://www.w3.org/2000/svg">
<path d="M31.286 215.386L1 217H1187V0.782097L1179.73 48.3823L1161.56 4.81601L1156.71 18.5313L1148.23 3.20245L1138.54 75.8129L1130.06 49.9958V75.8129L1121.58 100.823L1109.47 10.4635L1103.41 91.9486H1098.56L1091.3 42.7348L1082.82 112.118L1071.91 91.9486L1062.22 25.7924L1058.59 85.4943L1040.42 108.891V79.04L1025.88 75.8129L1018.61 88.7214L1007.71 64.5179L990.747 112.118L978.632 102.437L970.152 64.5179L960.461 125.027L948.346 112.118L942.289 49.9958L935.02 68.5518L925.329 122.606L913.214 102.437L905.946 96.7892L896.254 77.4265L886.563 95.1757L873.237 66.1315L867.18 108.891L857.488 87.1079L849.008 100.823L839.317 112.118L828.414 79.04L816.299 133.094L801.762 75.8129L788.436 136.322L782.379 118.572L775.11 131.481H761.784L753.304 88.7214L744.824 126.64L723.018 91.9486L715.75 144.389L703.635 136.322L696.367 91.9486L686.675 104.05L679.406 129.061L668.504 146.81L655.178 122.606L647.909 129.061L639.429 154.878L628.526 118.572L621.257 102.437L611.566 141.162L601.874 152.457L593.394 113.732L584.914 115.345L576.434 131.481L564.32 157.298L554.628 112.118L547.36 125.027L537.668 129.061L527.977 150.037L519.496 133.094L501.325 171.82L487.999 150.037L479.519 165.366L473.462 162.139L460.136 157.298L452.867 131.481L443.176 171.013L431.061 141.162L423.793 144.389L414.101 171.82L404.41 181.501L394.718 152.457L383.815 162.139L376.546 146.81L368.066 169.4L357.163 156.491L347.472 169.4H340.203L328.089 177.468L319.609 159.718L309.917 168.593L301.437 179.888L289.323 159.718L280.843 162.139L272.363 182.308L262.671 174.24L254.191 191.99L240.865 191.183L234.808 182.308L223.905 179.888L215.425 192.796L204.522 184.729L198.465 179.888L189.985 200.057L166.967 191.183L159.699 191.99L150.007 195.217L140.316 193.603L131.836 199.251L120.933 202.478L111.241 197.637L83.3779 206.512L73.6864 212.966L62.7835 207.318L55.5148 213.773L44.6118 212.966L31.286 215.386Z" fill="url(#paint0_linear_1_210)"/>
<path d="M1 217L31.286 215.386L44.6118 212.966L55.5148 213.773L62.7835 207.318L73.6864 212.966L83.3779 206.512L111.241 197.637L120.933 202.478L131.836 199.251L140.316 193.603L150.007 195.217L159.699 191.99L166.967 191.183L189.985 200.057L198.465 179.888L204.522 184.729L215.425 192.796L223.905 179.888L234.808 182.308L240.865 191.183L254.191 191.99L262.671 174.24L272.363 182.308L280.843 162.139L289.323 159.718L301.437 179.888L309.917 168.593L319.609 159.718L328.089 177.468L340.203 169.4H347.472L357.163 156.491L368.066 169.4L376.546 146.81L383.815 162.139L394.718 152.457L404.41 181.501L414.101 171.82L423.793 144.389L431.061 141.162L443.176 171.013L452.867 131.481L460.136 157.298L473.462 162.139L479.519 165.366L487.999 150.037L501.325 171.82L519.496 133.094L527.976 150.037L537.668 129.061L547.36 125.027L554.628 112.118L564.32 157.298L576.434 131.481L584.914 115.345L593.394 113.732L601.874 152.457L611.566 141.162L621.257 102.437L628.526 118.572L639.429 154.878L647.909 129.061L655.178 122.606L668.504 146.81L679.407 129.061L686.675 104.05L696.367 91.9486L703.635 136.322L715.75 144.389L723.018 91.9486L744.824 126.64L753.304 88.7214L761.784 131.481H775.11L782.379 118.572L788.436 136.322L801.762 75.8129L816.299 133.094L828.414 79.04L839.317 112.118L849.008 100.823L857.488 87.1079L867.18 108.891L873.237 66.1315L886.563 95.1757L896.254 77.4265L905.946 96.7892L913.214 102.437L925.329 122.606L935.02 68.5519L942.289 49.9958L948.346 112.118L960.461 125.027L970.152 64.5179L978.632 102.437L990.747 112.118L1007.71 64.5179L1018.61 88.7214L1025.88 75.8129L1040.42 79.04V108.891L1058.59 85.4943L1062.22 25.7924L1071.91 91.9486L1082.82 112.118L1091.3 42.7348L1098.56 91.9486H1103.41L1109.47 10.4635L1121.58 100.823L1130.06 75.8129V49.9958L1138.54 75.8129L1148.23 3.20245L1156.71 18.5313L1161.56 4.81601L1179.73 48.3823L1187 0.782097" stroke="#1EBE5E"/>
<defs>
<linearGradient id="paint0_linear_1_210" x1="594" y1="81.2887" x2="594" y2="217" gradientUnits="userSpaceOnUse">
<stop stop-color="#0A3A1F"/>
<stop offset="1" stop-color="#0A3A1F" stop-opacity="0"/>
</linearGradient>
</defs>
</svg>
