<svg width="16" height="16" viewBox="0 0 16 16" fill="none" xmlns="http://www.w3.org/2000/svg">
<path d="M13.495 3.17157C15.0035 4.68315 15.0553 7.09133 13.6524 8.662L7.99991 14.3233L2.34757 8.662C0.944678 7.09133 0.997118 4.67934 2.50489 3.17157C4.01436 1.6621 6.43011 1.61125 8.00065 3.01902C9.56665 1.61333 11.9866 1.66 13.495 3.17157ZM3.44769 4.11438C2.45453 5.10754 2.40467 6.6982 3.31993 7.7488L7.99991 12.4362L12.68 7.7488C13.5956 6.6978 13.546 5.11017 12.5513 4.1134C11.5598 3.11986 9.96385 3.07204 8.91618 3.98917L6.11436 6.79127L5.17155 5.84843L7.05465 3.964L7.00011 3.91801C5.95028 3.07465 4.41546 3.14662 3.44769 4.11438Z" fill="#0A3A1F"/>
</svg>
