<svg width="16" height="16" viewBox="0 0 16 16" fill="none" xmlns="http://www.w3.org/2000/svg">
<path d="M7.36839 5.21029L7.86946 2.85296C8.02259 2.13267 8.73059 1.67288 9.45092 1.82598L11.5817 2.27889C11.8901 1.93699 12.3673 1.76431 12.85 1.86692C13.5703 2.02002 14.0301 2.72805 13.877 3.44833C13.7239 4.16862 13.0159 4.62841 12.2956 4.47531C11.8129 4.37271 11.4471 4.02085 11.3045 3.58309L9.17366 3.13017L8.72952 5.21987C9.91926 5.31124 11.1015 5.70721 12.1721 6.35309C12.7261 6.04511 13.3995 5.9956 14.0047 6.24063C14.7821 6.55535 15.3021 7.29729 15.3327 8.13542L15.3331 8.14942C15.3434 8.81849 15.0393 9.44382 14.528 9.84949C14.5266 9.87855 14.5247 9.90602 14.5224 9.93142C14.5224 12.5966 11.5561 14.6178 7.99012 14.6178C4.43487 14.6178 1.51794 12.6018 1.5199 9.98255C1.51681 9.94229 1.5144 9.90202 1.51269 9.86175C0.977996 9.45822 0.656471 8.81849 0.666903 8.13082C0.679689 7.28782 1.18893 6.53187 1.96535 6.20329C2.57272 5.94626 3.25399 5.98868 3.8158 6.29589C4.90519 5.64437 6.10517 5.27496 7.36839 5.21029ZM13.559 8.89402C13.8311 8.75882 14.002 8.48049 14.0001 8.17709C13.9859 7.86702 13.7925 7.59315 13.5043 7.47649C13.214 7.35895 12.8817 7.42289 12.6558 7.63982L12.2661 8.01382L11.8193 7.71015C10.7425 6.97815 9.51806 6.55982 8.33299 6.53425L7.66199 6.53417C6.41193 6.55302 5.22756 6.93349 4.17034 7.65049L3.7283 7.95029L3.3393 7.58429C3.11 7.36855 2.77494 7.30849 2.48499 7.43122C2.19504 7.55389 2.00486 7.83622 1.99999 8.15102C1.99531 8.46582 2.17683 8.75382 2.46293 8.88522L2.88491 9.07909L2.84932 9.54215C2.84066 9.65469 2.84066 9.76775 2.85128 9.93142C2.85128 11.7381 5.08874 13.2845 7.99012 13.2845C10.9041 13.2845 13.1891 11.7276 13.191 9.88035C13.1997 9.76775 13.1997 9.65469 13.191 9.54215L13.1565 9.09409L13.559 8.89402ZM4.63382 8.99995C4.63382 8.44769 5.08154 7.99995 5.63382 7.99995C6.18611 7.99995 6.63382 8.44769 6.63382 8.99995C6.63382 9.55222 6.18611 9.99995 5.63382 9.99995C5.3686 9.99995 5.11425 9.89462 4.92672 9.70709C4.73918 9.51955 4.63382 9.26515 4.63382 8.99995ZM9.30046 8.99995C9.30046 8.44769 9.74819 7.99995 10.3005 7.99995C10.8528 7.99995 11.3005 8.44769 11.3005 8.99995C11.3005 9.55222 10.8528 9.99995 10.3005 9.99995C10.0353 9.99995 9.78092 9.89462 9.59339 9.70709C9.40586 9.51955 9.30046 9.26515 9.30046 8.99995ZM7.97766 12.4019C7.04619 12.4019 6.13328 12.1553 5.39001 11.5952C5.29772 11.4828 5.30578 11.3186 5.40865 11.2158C5.51152 11.1129 5.67565 11.1048 5.78811 11.1971C6.41797 11.6591 7.20332 11.8571 7.96712 11.8571C8.73099 11.8571 9.52086 11.6742 10.1567 11.2181C10.2315 11.1451 10.3397 11.1176 10.4403 11.1459C10.5409 11.1742 10.6188 11.2541 10.6446 11.3554C10.6703 11.4568 10.6345 11.5564 10.5653 11.6371C10.1092 12.1688 8.90906 12.4019 7.97766 12.4019Z" fill="#0A3A1F"/>
</svg>
