<svg width="16" height="16" viewBox="0 0 16 16" fill="none" xmlns="http://www.w3.org/2000/svg">
<path d="M7.3336 1.33331V5.60929C7.06313 5.55937 6.78453 5.53331 6.50026 5.53331C3.97816 5.53331 1.93359 7.57785 1.93359 10.1C1.93359 12.6221 3.97816 14.6666 6.50026 14.6666C9.02233 14.6666 11.0669 12.6221 11.0669 10.1V7.60905C11.7577 7.90258 12.5108 8.06665 13.3337 8.06665H14.0003V4.33331H13.3337C12.0644 4.33331 11.0669 3.30837 11.0669 1.99998V1.33331H7.3336ZM8.66693 2.66665H9.792C10.0545 4.14671 11.1782 5.33069 12.667 5.60605V6.68545C11.9749 6.58399 11.3502 6.32428 10.7711 5.93665L9.7336 5.24216V10.1C9.7336 11.8857 8.286 13.3333 6.50026 13.3333C4.71454 13.3333 3.26693 11.8857 3.26693 10.1C3.26693 8.31425 4.71454 6.86665 6.50026 6.86665C6.55621 6.86665 6.61179 6.86805 6.667 6.87085V7.93965C6.61197 7.93545 6.55636 7.93331 6.50026 7.93331C5.30365 7.93331 4.33359 8.90338 4.33359 10.1C4.33359 11.2966 5.30365 12.2666 6.50026 12.2666C7.69687 12.2666 8.66693 11.2966 8.66693 10.1C8.66693 7.62225 8.66613 5.14441 8.66693 2.66665ZM5.66693 10.1C5.66693 9.63971 6.04002 9.26665 6.50026 9.26665C6.96047 9.26665 7.3336 9.63971 7.3336 10.1C7.3336 10.5602 6.96047 10.9333 6.50026 10.9333C6.04002 10.9333 5.66693 10.5602 5.66693 10.1Z" fill="#0A3A1F"/>
</svg>
