<svg width="16" height="16" viewBox="0 0 16 16" fill="none" xmlns="http://www.w3.org/2000/svg">
<path d="M10.2333 3.69985C9.17876 3.69985 8.31909 4.54522 8.30029 5.59754L8.28156 6.64757C8.27762 6.86845 8.09536 7.04432 7.87449 7.04038C7.85876 7.04012 7.84309 7.03892 7.82756 7.03678L6.78702 6.89485C5.41802 6.70818 4.10591 6.07806 2.84717 5.02923C2.44852 7.23565 3.22669 8.76465 5.1023 9.94378L6.26696 10.676C6.45399 10.7936 6.51029 11.0405 6.39271 11.2275C6.36576 11.2704 6.33093 11.3077 6.29005 11.3376L5.22894 12.1128C5.85984 12.1525 6.45961 12.1248 6.95669 12.0256C10.1018 11.398 12.1932 9.03118 12.1932 5.12721C12.1932 4.80848 11.5183 3.69985 10.2333 3.69985ZM6.96716 5.57376C6.99889 3.79704 8.44902 2.36652 10.2333 2.36652C11.1422 2.36652 11.9644 2.7377 12.5566 3.33675C13.0308 3.33318 13.4343 3.45309 14.3357 2.90627C14.1129 3.99985 14.0023 4.4745 13.5265 5.12721C13.5265 10.2216 10.3951 12.6991 7.21762 13.3332C5.03916 13.7679 1.871 13.0541 0.963562 12.1056C1.42585 12.07 3.30621 11.8678 4.39266 11.0726C3.47332 10.4656 -0.185732 8.31192 2.2185 2.5241C3.34748 3.84187 4.492 4.73886 5.65207 5.21506C6.42368 5.53181 6.61321 5.52548 6.96716 5.57376Z" fill="#0A3A1F"/>
</svg>
