<svg width="16" height="16" viewBox="0 0 16 16" fill="none" xmlns="http://www.w3.org/2000/svg">
<path d="M13.0713 4.66323C13.0205 4.46465 12.8768 4.31483 12.7123 4.26861C12.4199 4.1871 11.0007 4.00002 8.00067 4.00002C5.00065 4.00002 3.58168 4.18717 3.28816 4.26884C3.12517 4.31417 2.98153 4.46397 2.93006 4.66323C2.85753 4.94617 2.66732 6.13065 2.66732 8.00002C2.66732 9.86935 2.85753 11.0539 2.93026 11.3376C2.98084 11.5354 3.1245 11.6852 3.28834 11.7312C3.58168 11.8129 5.00065 12 8.00067 12C11.0007 12 12.4199 11.813 12.7131 11.7312C12.8761 11.6859 13.0198 11.5361 13.0713 11.3368C13.1438 11.0539 13.334 9.86669 13.334 8.00002C13.334 6.13335 13.1438 4.94617 13.0713 4.66323ZM14.3628 4.33214C14.6673 5.52002 14.6673 8.00002 14.6673 8.00002C14.6673 8.00002 14.6673 10.48 14.3628 11.6679C14.1931 12.3249 13.698 12.8412 13.0704 13.0158C11.9314 13.3334 8.00067 13.3334 8.00067 13.3334C8.00067 13.3334 4.07224 13.3334 2.93091 13.0158C2.30097 12.8388 1.80586 12.3224 1.63849 11.6679C1.33398 10.48 1.33398 8.00002 1.33398 8.00002C1.33398 8.00002 1.33398 5.52002 1.63849 4.33214C1.80818 3.67517 2.3033 3.15881 2.93091 2.98426C4.07224 2.66669 8.00067 2.66669 8.00067 2.66669C8.00067 2.66669 11.9314 2.66669 13.0704 2.98426C13.7003 3.16123 14.1955 3.67759 14.3628 4.33214ZM6.66733 10.3334V5.66669L10.6673 8.00002L6.66733 10.3334Z" fill="#0A3A1F"/>
</svg>
