<?xml version="1.0" encoding="UTF-8"?>
<svg id="DESIGN" xmlns="http://www.w3.org/2000/svg" xmlns:xlink="http://www.w3.org/1999/xlink" viewBox="0 0 500 500">
  <defs>
    <style>
      .cls-1 {
        fill: url(#linear-gradient-2);
      }

      .cls-2 {
        fill: #fff;
      }

      .cls-3 {
        fill: url(#linear-gradient-6);
      }

      .cls-4 {
        fill: url(#linear-gradient-10);
      }

      .cls-5 {
        fill: url(#linear-gradient-5);
      }

      .cls-6 {
        fill: url(#linear-gradient-7);
      }

      .cls-7 {
        fill: url(#linear-gradient-9);
      }

      .cls-8 {
        fill: url(#linear-gradient-3);
      }

      .cls-9 {
        fill: url(#linear-gradient);
      }

      .cls-10 {
        fill: url(#linear-gradient-4);
      }

      .cls-11 {
        fill: url(#linear-gradient-8);
      }
    </style>
    <linearGradient id="linear-gradient" x1="32.18" y1="220.83" x2="305.62" y2="332.65" gradientUnits="userSpaceOnUse">
      <stop offset="0" stop-color="#91cdc6"/>
      <stop offset="1" stop-color="#40ae5f"/>
    </linearGradient>
    <linearGradient id="linear-gradient-2" x1="37.73" y1="207.27" x2="311.17" y2="319.08" xlink:href="#linear-gradient"/>
    <linearGradient id="linear-gradient-3" x1="43.55" y1="193.03" x2="316.99" y2="304.84" xlink:href="#linear-gradient"/>
    <linearGradient id="linear-gradient-4" x1="48.87" y1="180.01" x2="322.31" y2="291.83" xlink:href="#linear-gradient"/>
    <linearGradient id="linear-gradient-5" x1="63.56" y1="144.08" x2="337.01" y2="255.9" xlink:href="#linear-gradient"/>
    <linearGradient id="linear-gradient-6" x1="53.91" y1="167.69" x2="327.35" y2="279.51" xlink:href="#linear-gradient"/>
    <linearGradient id="linear-gradient-7" x1="46.17" y1="189.26" x2="319.62" y2="301.08" xlink:href="#linear-gradient"/>
    <linearGradient id="linear-gradient-8" x1="41.55" y1="200.56" x2="315" y2="312.38" xlink:href="#linear-gradient"/>
    <linearGradient id="linear-gradient-9" x1="33.57" y1="220.08" x2="307.01" y2="331.9" xlink:href="#linear-gradient"/>
    <linearGradient id="linear-gradient-10" x1="27.39" y1="235.18" x2="300.84" y2="347" xlink:href="#linear-gradient"/>
  </defs>
  <g>
    <path class="cls-9" d="m172.01,257.49c-1.88-1.15-4.08-1.73-6.62-1.73s-4.91.64-6.8,1.93c-1.88,1.28-3.23,3.07-4.04,5.36h-.37v-18.77h-12.42v47.82h12.89v-20.18c.02-1.18.24-2.2.67-3.05.43-.85,1.04-1.5,1.82-1.96s1.7-.69,2.74-.69c1.65,0,2.92.51,3.82,1.52.9,1.01,1.33,2.41,1.32,4.18v20.18h12.89v-22.88c.02-2.62-.49-4.93-1.53-6.96-1.04-2.02-2.49-3.61-4.37-4.76Z"/>
    <path class="cls-1" d="m211.54,258.08c-2.77-1.55-6.1-2.32-9.99-2.32s-7.22.77-9.99,2.32c-2.77,1.55-4.9,3.71-6.38,6.49-1.48,2.78-2.22,6-2.22,9.68s.74,6.9,2.22,9.68c1.48,2.78,3.6,4.94,6.38,6.49,2.77,1.55,6.1,2.32,9.99,2.32s7.22-.77,9.99-2.32c2.77-1.55,4.9-3.71,6.38-6.49,1.48-2.78,2.22-6,2.22-9.68s-.74-6.9-2.22-9.68c-1.48-2.78-3.6-4.94-6.38-6.49Zm-5.23,20.91c-.44,1.35-1.05,2.4-1.84,3.13s-1.74,1.1-2.83,1.1c-1.15,0-2.14-.37-2.97-1.1s-1.46-1.78-1.89-3.13c-.44-1.35-.65-2.96-.65-4.83s.22-3.5.65-4.85c.44-1.35,1.07-2.39,1.89-3.12s1.81-1.1,2.97-1.1c1.09,0,2.03.37,2.83,1.1s1.41,1.77,1.84,3.12c.44,1.35.65,2.96.65,4.85s-.22,3.48-.65,4.83Z"/>
    <path class="cls-8" d="m255.25,260.68c-1.56-1.6-3.43-2.81-5.63-3.66-2.19-.84-4.65-1.26-7.36-1.26-3.71,0-6.92.77-9.64,2.31-2.72,1.54-4.83,3.7-6.33,6.47-1.49,2.77-2.24,6.01-2.24,9.71s.74,7.17,2.23,9.94,3.61,4.88,6.38,6.35c2.76,1.47,6.06,2.21,9.89,2.21,3.32,0,6.21-.5,8.7-1.51,2.48-1,4.48-2.42,5.99-4.25,1.51-1.83,2.47-3.99,2.87-6.48h-11.77c-.25.67-.64,1.24-1.17,1.72-.53.48-1.16.84-1.9,1.09-.74.25-1.55.37-2.44.37-1.28,0-2.37-.26-3.27-.77s-1.6-1.22-2.08-2.12c-.48-.9-.72-1.93-.72-3.08v-.56h23.35v-2.99c0-2.85-.42-5.41-1.26-7.68-.84-2.27-2.04-4.21-3.6-5.8Zm-18.49,9.38c.03-1.04.31-1.95.83-2.73.52-.78,1.22-1.39,2.09-1.83.87-.44,1.83-.67,2.87-.67s2.04.22,2.88.67c.85.44,1.53,1.06,2.03,1.85s.77,1.69.78,2.72h-11.49Z"/>
    <path class="cls-10" d="m295.59,257.5c-1.88-1.16-4.08-1.74-6.62-1.74s-4.93.65-6.9,1.94c-1.97,1.29-3.34,3.07-4.12,5.35h-.37v-6.82h-12.24v35.87h12.89v-20.18c.02-1.18.23-2.2.65-3.05s1.02-1.5,1.81-1.96,1.71-.69,2.77-.69c1.62,0,2.88.51,3.79,1.52s1.36,2.41,1.34,4.18v20.18h12.89v-22.88c.02-2.6-.49-4.91-1.53-6.93-1.04-2.02-2.49-3.62-4.37-4.78Z"/>
    <path class="cls-5" d="m314.28,252.49c1.76,0,3.26-.58,4.5-1.73,1.24-1.15,1.86-2.54,1.86-4.16s-.62-3-1.86-4.16c-1.24-1.15-2.74-1.73-4.5-1.73s-3.24.58-4.48,1.73c-1.25,1.15-1.87,2.54-1.87,4.16s.62,3,1.87,4.16c1.25,1.15,2.74,1.73,4.48,1.73Z"/>
    <rect class="cls-3" x="307.84" y="256.23" width="12.89" height="35.87"/>
    <polygon class="cls-2" points="371.63 244.27 357.15 244.27 349.21 258.19 348.84 258.19 340.99 244.27 326.42 244.27 340.62 268.18 325.96 292.09 340.71 292.09 348.84 277.9 349.21 277.9 357.34 292.09 372.19 292.09 357.34 268.18 371.63 244.27"/>
    <path class="cls-2" d="m413.35,269.19c1.52-2.35,2.28-5.24,2.28-8.66s-.74-6.3-2.22-8.73c-1.48-2.43-3.55-4.29-6.21-5.58-2.66-1.29-5.77-1.94-9.32-1.94h-20.64v47.82h12.98v-15.79h4.49l8.4,15.79h14.1l-9.71-17.84c2.48-1.19,4.43-2.88,5.85-5.07Zm-23.13-14.55h4.58c1.53,0,2.83.21,3.91.62,1.08.41,1.91,1.05,2.5,1.92.58.86.88,1.98.88,3.35s-.29,2.45-.88,3.29c-.58.84-1.42,1.45-2.5,1.83-1.08.38-2.39.57-3.91.57h-4.58v-11.58Z"/>
    <path class="cls-2" d="m457.31,252.28c-1.48-2.54-3.55-4.51-6.21-5.91-2.66-1.4-5.77-2.1-9.32-2.1h-20.64v47.82h12.98v-14.2h7.19c3.64,0,6.83-.68,9.56-2.03s4.86-3.28,6.38-5.79c1.52-2.51,2.28-5.47,2.28-8.9s-.74-6.36-2.22-8.9Zm-12.2,12.42c-.58,1-1.42,1.76-2.5,2.3-1.08.54-2.39.81-3.91.81h-4.58v-13.17h4.58c1.53,0,2.83.26,3.91.78,1.08.52,1.91,1.27,2.5,2.24.58.97.88,2.14.88,3.51s-.29,2.53-.88,3.53Z"/>
  </g>
  <g>
    <g>
      <path class="cls-6" d="m86.56,225.6c-.9,8.39,10.04,17.43,19.07,11.46-6.37.43-10.63-1.37-12.79-5.38,8.02,5.51,15.5,4.35,22.44-3.47-4.73,3.62-10.31,3.98-16.75,1.1,5.73.7,14.08-1.67,16.92-5.08-2.61,1.3-4.15,1.66-7.31,1.54,10.55-3.05,13.75-8.44,15.65-13.07-4.83,5.53-11,8.82-18.5,9.85,6.53-2.87,12.07-8.15,14.8-14.84-3.96,4.48-4.68,4.92-10.29,8.67,13.39-11.29,12.45-19.85,11.75-25.19-4.77,26.78-34.05,29.86-34.99,34.42Z"/>
      <path class="cls-11" d="m73.77,225.75c.85-5.08-28.16-19.95-22.4-49.51-2.85,5.24-7.24,13.7,2.08,30.71-4.3-6.11-4.86-6.85-7.16-13.06.15,7.99,3.76,15.65,9.36,21.23-7.34-4.06-12.4-9.92-15.17-17.56.11,5.54,1.26,12.39,10.94,19.74-3.32-1.14-4.76-2.12-6.94-4.51,1.57,4.65,9.25,10.44,15.45,12-7.8.41-13.42-2.2-16.86-7.82,4.05,10.85,11.31,15.03,21.79,12.54-3.83,3.28-8.95,3.43-15.36.45,6.94,9.77,21.85,4.8,24.27-4.23Z"/>
      <path class="cls-7" d="m62.78,236.87c4.15.47,7.06.02,8.73-1.36.31,1.42,1.47,2.98,3.47,4.7-1.82-2.97-2.67-6-2.54-9.09-2.07,2.98-5.28,4.88-9.67,5.75Z"/>
    </g>
    <path class="cls-4" d="m135.02,251.82c-1.4-2.4-3.35-4.25-5.86-5.58-2.51-1.32-5.45-1.98-8.8-1.98h-22.79c-4.66,0-8.66-2.72-11.15-5.58,6.65,4.04,9.8,4.3,15.36,3.87-14.36-2.48-20.87-14.95-16.5-23.9,1.99-3.31,5.15-5.03,6.33-5.58.33-.16.62-.39.86-.67l.83-.99c.56-.24,1.14-.47,1.75-.67-1.57-1.75-5.22-.16-6.74-.27-9.2-.69-9.93,6.95-16.29,11.53,1.72.23,3.69-.39,5.91-1.87-12.72,21.59,13.03,24.47,1.23,45.23,6.51-5.04,6.88-13.95,6.88-13.95,2.72,10.88-1.08,17-6.92,23.8,8.24-3.83,11.35-10.55,11.76-17.62,3.56,9.61,5.78,40.7-1.83,55.16,14.28-5.73,17.18-36.84,17.18-36.84l6.91-.03,9.44-.02h.01c2.35-.25,4.47-.84,6.36-1.78,2.58-1.28,4.58-3.1,6.02-5.47,1.43-2.36,2.14-5.16,2.14-8.39s-.69-6.01-2.09-8.4Zm-52.12-38.71c1.04-.91,2.24-1.18,3.58-.82-.98.88-2.16,1.15-3.58.82Zm40.61,50.43c-.42.72-.97,1.31-1.66,1.78-.16.1-.33.2-.51.3-.06.03-.12.07-.19.1-1.02.5-2.26.76-3.69.76h-4.32v-12.06h7.07c.31.09.61.2.89.34.02,0,.03.01.05.02,1.02.5,1.8,1.2,2.36,2.12.55.92.82,2.02.82,3.32s-.27,2.38-.82,3.32Z"/>
  </g>
</svg>